<!-- Generator: Adobe Illustrator 19.2.1, SVG Export Plug-In  -->
<svg version="1.1"
	 xmlns="http://www.w3.org/2000/svg" xmlns:xlink="http://www.w3.org/1999/xlink" xmlns:a="http://ns.adobe.com/AdobeSVGViewerExtensions/3.0/"
	 x="0px" y="0px" width="85.5px" height="130.9px" viewBox="0 0 85.5 130.9" style="enable-background:new 0 0 85.5 130.9;"
	 xml:space="preserve">
<style type="text/css">
	.st0{fill:#00ADEE;}
	.st1{fill:#333333;}
</style>
<defs>
</defs>
<g>
	<g>
		<path class="st0" d="M31.6,31.3c-1.3-1-2.5-2.1-3.6-3.3c-0.4,0-0.8,0-1.2,0c-1.3,0-2.5-0.1-3.7-0.3c0.9,1.5,2,2.9,3.2,4.1
			c0.2,0,0.3,0,0.5,0C28.4,31.8,30,31.6,31.6,31.3z"/>
	</g>
	<path class="st1" d="M85.5,54.7c0-4.6-3.7-8.4-8.2-8.4H77c-4.4,0-7.9,3.5-8.2,7.8V50c0-4.6-3.7-8.4-8.2-8.4h-0.2
		c-4.4,0-7.9,3.5-8.2,7.8V15.7c0-4.6-3.7-8.4-8.2-8.4h-0.2c-4.4,0-7.9,3.5-8.2,7.8V8.4c0-4.6-3.7-8.4-8.2-8.4h-0.2
		c-4.6,0-8.2,3.8-8.2,8.4v52.3c-0.8,0-1.7,0.1-2.5,0.3V49.4c0-7-5.6-12.7-12.5-12.7H2.5c-1.4,0-2.5,1.1-2.5,2.6v41.1v5.1v3
		c0,23.4,18.9,42.3,42.3,42.3h0.9c21.8,0,39.8-16.5,42.1-37.7h0.2V54.7z"/>
</g>
</svg>
