<!-- Generator: Adobe Illustrator 19.2.1, SVG Export Plug-In  -->
<svg version="1.1"
	 xmlns="http://www.w3.org/2000/svg" xmlns:xlink="http://www.w3.org/1999/xlink" xmlns:a="http://ns.adobe.com/AdobeSVGViewerExtensions/3.0/"
	 x="0px" y="0px" width="48.3px" height="48.3px" viewBox="0 0 48.3 48.3" style="enable-background:new 0 0 48.3 48.3;"
	 xml:space="preserve">
<style type="text/css">
	.st0{fill:#333333;}
	.st1{fill:#333333;stroke:#FFFFFF;stroke-miterlimit:10;}
</style>
<defs>
</defs>
<g>
	<path class="st0" d="M41,9.5c-0.4-0.6-1.4-0.8-2.3-0.5c-0.8,0.3-1.2,0.9-0.8,1.5h0c3.2,4.6,4.8,9.5,4.8,14.5
		c0,4.9-1.6,9.9-4.8,14.5c-0.4,0.6,0,1.3,0.8,1.5C39,41,39.2,41,39.5,41c0.6,0,1.3-0.2,1.5-0.7c3.4-4.9,5.1-10.2,5.1-15.4
		C46.2,19.7,44.4,14.4,41,9.5z"/>
	<path class="st0" d="M36.5,15.7c-0.3-0.6-1.3-0.9-2.2-0.7c-0.9,0.2-1.4,0.9-1,1.5c1.4,2.7,2.1,5.6,2.1,8.4c0,2.9-0.7,5.8-2.1,8.5
		c-0.3,0.6,0.2,1.2,1.1,1.5c0.2,0,0.4,0.1,0.6,0.1c0.7,0,1.4-0.3,1.6-0.8c1.5-3,2.3-6.1,2.3-9.2C38.8,21.8,38.1,18.7,36.5,15.7z"/>
	<path class="st0" d="M25.9,6.7c-2.4,1.5-8.6,6.8-12.1,9.9H3.4c-0.7,0-1.3,0.6-1.3,1.3v14.5c0,0.7,0.6,1.3,1.3,1.3H14
		c3.6,3.1,9.5,8.2,11.9,9.7c3,1.9,3.4-1.3,3.4-1.3V25.4v-0.8V8C29.3,8,28.9,4.8,25.9,6.7z"/>
</g>
<g>
	<path class="st1" d="M42.1,2.1l-40,40c-1.4,1.4-2,3-1.4,3.5l2,2c0.6,0.6,2.2-0.1,3.5-1.4l40-40c1.4-1.4,2-3,1.4-3.5l-2-2
		C45.1,0.1,43.5,0.8,42.1,2.1z"/>
</g>
</svg>
