<!-- Generator: Adobe Illustrator 19.2.1, SVG Export Plug-In  -->
<svg version="1.1"
	 xmlns="http://www.w3.org/2000/svg" xmlns:xlink="http://www.w3.org/1999/xlink" xmlns:a="http://ns.adobe.com/AdobeSVGViewerExtensions/3.0/"
	 x="0px" y="0px" width="21px" height="21px" viewBox="0 0 21 21" style="enable-background:new 0 0 21 21;" xml:space="preserve">
<style type="text/css">
	.st0{fill:#333333;}
</style>
<defs>
</defs>
<path class="st0" d="M20.8,14.3c-0.6-0.8-2.9-3-5.5-5.1c0.1-0.2,0.1-0.5,0.1-0.9c0-0.9-0.4-1-0.9-1c-0.4,0-0.7,0.1-0.8,0.6
	c-0.7-0.6-1.4-1.1-2.1-1.6v0C11.6,2.6,11.4,0,10.4,0c-1,0-1.1,2.6-1.2,6.3v0c-0.7,0.5-1.4,1-2.1,1.5C7.1,7.3,6.8,7.2,6.4,7.2
	c-0.5,0-0.9,0.1-0.9,1c0,0.3,0,0.6,0.1,0.9c-2.6,2.1-4.9,4.3-5.5,5.1C-0.1,14.6,0,15.1,0,15.5l6.3-3.5l3-0.9l0,0l0.3,7.1l-2.2,2.1
	c-0.1,0.2-0.1,0.4,0,0.7c1-0.2,1.8-0.5,2.8-0.7c0.3,0.9,0.6,0.9,0.8,0c1,0.2,1.8,0.5,2.8,0.7c0-0.3,0-0.5,0-0.7l-2.2-2.1l0.2-7.1
	l3,0.9l6.3,3.5C21,15.1,21.1,14.6,20.8,14.3z"/>
</svg>
