<!-- Generator: Adobe Illustrator 19.2.1, SVG Export Plug-In  -->
<svg version="1.1"
	 xmlns="http://www.w3.org/2000/svg" xmlns:xlink="http://www.w3.org/1999/xlink" xmlns:a="http://ns.adobe.com/AdobeSVGViewerExtensions/3.0/"
	 x="0px" y="0px" width="18.5px" height="21px" viewBox="0 0 18.5 21" style="enable-background:new 0 0 18.5 21;"
	 xml:space="preserve">
<style type="text/css">
	.st0{fill:#333333;}
</style>
<defs>
</defs>
<path class="st0" d="M10.5,21C4.7,21,0,16.3,0,10.5C0,5.1,4.1,0.6,9.4,0c0,0,0.1,0,0.1,0c0.5,0,1,0.3,1.2,0.8
	c0.3,0.5,0.2,1.1-0.2,1.6C9.2,3.8,8.4,5.7,8.4,7.7c0,4.3,3.5,7.8,7.8,7.8c0.3,0,0.5,0,0.8,0c0,0,0.1,0,0.1,0c0.5,0,1,0.3,1.2,0.8
	c0.3,0.5,0.2,1.1-0.2,1.6C16.1,19.8,13.4,21,10.5,21z"/>
</svg>
