<!-- Generator: Adobe Illustrator 19.2.1, SVG Export Plug-In  -->
<svg version="1.1"
	 xmlns="http://www.w3.org/2000/svg" xmlns:xlink="http://www.w3.org/1999/xlink" xmlns:a="http://ns.adobe.com/AdobeSVGViewerExtensions/3.0/"
	 x="0px" y="0px" width="21px" height="21px" viewBox="0 0 21 21" style="enable-background:new 0 0 21 21;" xml:space="preserve">
<style type="text/css">
	.st0{fill:#333333;}
</style>
<defs>
</defs>
<g>
	<path class="st0" d="M16.1,10.5c0,3.1-2.5,5.6-5.6,5.6c-3.1,0-5.6-2.5-5.6-5.6c0-3.1,2.5-5.6,5.6-5.6C13.6,4.9,16.1,7.4,16.1,10.5z
		"/>
	<path class="st0" d="M10.5,3.3c-0.2,0-0.4-0.2-0.4-0.4V0.4c0-0.2,0.2-0.4,0.4-0.4c0.2,0,0.4,0.2,0.4,0.4v2.4
		C10.9,3.1,10.7,3.3,10.5,3.3z"/>
	<path class="st0" d="M10.5,21c-0.2,0-0.4-0.2-0.4-0.4v-2.4c0-0.2,0.2-0.4,0.4-0.4c0.2,0,0.4,0.2,0.4,0.4v2.4
		C10.9,20.8,10.7,21,10.5,21z"/>
	<path class="st0" d="M3.3,10.5c0,0.2-0.2,0.4-0.4,0.4H0.4c-0.2,0-0.4-0.2-0.4-0.4s0.2-0.4,0.4-0.4h2.4C3.1,10.1,3.3,10.3,3.3,10.5z
		"/>
	<path class="st0" d="M21,10.5c0,0.2-0.2,0.4-0.4,0.4h-2.4c-0.2,0-0.4-0.2-0.4-0.4s0.2-0.4,0.4-0.4h2.4C20.8,10.1,21,10.3,21,10.5z"
		/>
	<path class="st0" d="M5.4,15.6c0.2,0.2,0.2,0.4,0,0.6l-1.7,1.7c-0.2,0.2-0.5,0.2-0.6,0c-0.2-0.2-0.2-0.4,0-0.6l1.7-1.7
		C5,15.4,5.2,15.4,5.4,15.6z"/>
	<path class="st0" d="M17.9,3.1c0.2,0.2,0.2,0.5,0,0.6l-1.7,1.7c-0.2,0.2-0.4,0.2-0.6,0c-0.2-0.2-0.2-0.4,0-0.6l1.7-1.7
		C17.5,2.9,17.7,2.9,17.9,3.1z"/>
	<path class="st0" d="M15.6,15.6c0.2-0.2,0.4-0.2,0.6,0l1.7,1.7c0.2,0.2,0.2,0.5,0,0.6c-0.2,0.2-0.5,0.2-0.6,0l-1.7-1.7
		C15.4,16,15.4,15.8,15.6,15.6z"/>
	<path class="st0" d="M3.1,3.1c0.2-0.2,0.4-0.2,0.6,0l1.7,1.7c0.2,0.2,0.2,0.5,0,0.6C5.2,5.6,5,5.6,4.8,5.4L3.1,3.7
		C2.9,3.5,2.9,3.2,3.1,3.1z"/>
</g>
</svg>
