<!-- Generator: Adobe Illustrator 19.2.1, SVG Export Plug-In  -->
<svg version="1.1"
	 xmlns="http://www.w3.org/2000/svg" xmlns:xlink="http://www.w3.org/1999/xlink" xmlns:a="http://ns.adobe.com/AdobeSVGViewerExtensions/3.0/"
	 x="0px" y="0px" width="60.4px" height="60.4px" viewBox="0 0 60.4 60.4" style="enable-background:new 0 0 60.4 60.4;"
	 xml:space="preserve">
<style type="text/css">
	.st0{fill:#333333;}
</style>
<defs>
</defs>
<g>
	<g>
		<path class="st0" d="M30.2,9.5c-0.7,0-1.3-0.6-1.3-1.3v-7c0-0.7,0.6-1.3,1.3-1.3c0.7,0,1.3,0.6,1.3,1.3v7
			C31.4,8.9,30.9,9.5,30.2,9.5z"/>
		<path class="st0" d="M9.5,30.2c0,0.7-0.6,1.3-1.3,1.3h-7c-0.7,0-1.3-0.6-1.3-1.3c0-0.7,0.6-1.3,1.3-1.3h7
			C8.9,28.9,9.5,29.5,9.5,30.2z"/>
		<path class="st0" d="M60.4,30.2c0,0.7-0.6,1.3-1.3,1.3h-7c-0.7,0-1.3-0.6-1.3-1.3c0-0.7,0.6-1.3,1.3-1.3h7
			C59.8,28.9,60.4,29.5,60.4,30.2z"/>
		<path class="st0" d="M51.5,8.8c0.5,0.5,0.5,1.3,0,1.8l-4.9,4.9c-0.5,0.5-1.3,0.5-1.8,0c-0.5-0.5-0.5-1.3,0-1.8l4.9-4.9
			C50.2,8.3,51,8.3,51.5,8.8z"/>
		<path class="st0" d="M44.8,44.8c0.5-0.5,1.3-0.5,1.8,0l4.9,4.9c0.5,0.5,0.5,1.3,0,1.8c-0.5,0.5-1.3,0.5-1.8,0l-4.9-4.9
			C44.3,46.1,44.3,45.3,44.8,44.8z"/>
		<path class="st0" d="M8.8,8.8c0.5-0.5,1.3-0.5,1.8,0l4.9,4.9c0.5,0.5,0.5,1.3,0,1.8c-0.5,0.5-1.3,0.5-1.8,0l-4.9-4.9
			C8.3,10.1,8.3,9.3,8.8,8.8z"/>
	</g>
	<path class="st0" d="M46.2,30.2c0-8.8-7.2-16-16-16c-8.8,0-16,7.2-16,16c0,0.4,0,0.8,0.1,1.2c0,0,0.1,0,0.1,0
		c1.1,0,2.1,0.1,3.1,0.4c-0.1-0.5-0.1-1.1-0.1-1.6c0-7.1,5.8-12.9,12.9-12.9c7.1,0,12.9,5.8,12.9,12.9c0,5.6-3.6,10.4-8.6,12.1
		c0.5,0.9,0.8,1.9,0.9,3C41.6,43.2,46.2,37.2,46.2,30.2z"/>
	<path class="st0" d="M28.9,59.1c0,0.7,0.6,1.3,1.3,1.3c0.7,0,1.3-0.6,1.3-1.3v-5.6c-0.8,0.5-1.6,0.9-2.5,1.2V59.1z"/>
	<path class="st0" d="M35.4,46.1c0-0.3,0-0.5,0-0.8c-0.1-1.1-0.4-2.1-0.9-3c-1.4-2.9-4.4-5-7.9-5c-0.5,0-1.1,0.1-1.6,0.2l-0.2,0
		l-0.1-0.2c-0.5-0.9-1.2-1.8-1.9-2.5c-1.5-1.5-3.3-2.5-5.2-3c-1-0.3-2-0.4-3.1-0.4c0,0-0.1,0-0.1,0c-3.1,0-6,1.2-8.2,3.4
		C3.8,37,2.5,40,2.5,43.1c0,3.1,1.2,6.1,3.5,8.3c2.2,2.2,5.2,3.5,8.3,3.5c2.3,0,4.5-0.7,6.4-1.9l0.2-0.1l0.2,0.1
		c1.6,1.2,3.4,1.9,5.4,1.9c0.8,0,1.6-0.1,2.4-0.3c0.9-0.3,1.8-0.6,2.5-1.2C33.8,51.9,35.4,49.2,35.4,46.1z M21.4,49.7l-0.2-0.3
		l-0.3,0.3c-1.8,1.8-4.1,2.8-6.6,2.8c-5.1,0-9.3-4.2-9.3-9.3c0-5.1,4.2-9.3,9.3-9.3c0.1,0,0.2,0,0.3,0c1.2,0,2.4,0.3,3.5,0.8
		c2.4,1.1,4.2,3.1,5,5.7l0.1,0.3l0.3-0.2c0.9-0.5,1.9-0.7,2.9-0.7c2.3,0,4.3,1.2,5.4,3.1c0.5,0.9,0.9,1.9,0.9,3c0,0.1,0,0.1,0,0.2
		c0,1.9-0.9,3.6-2.2,4.8c-0.5,0.4-1.1,0.8-1.7,1c-0.7,0.3-1.5,0.5-2.4,0.5C24.5,52.4,22.5,51.4,21.4,49.7z"/>
</g>
</svg>
